<svg xmlns="http://www.w3.org/2000/svg" width="620" height="192" viewBox="0 0 620 192" role="img" aria-label="Project: Advanced RAG System"><title>Project: Advanced RAG System</title><rect x="1" y="1" width="618" height="190" rx="18" fill="#122238" stroke="#2C4664" stroke-width="2"/><rect x="1" y="1" width="7" height="190" rx="3" fill="#A78BFA"/><circle cx="548" cy="53" r="57" fill="none" stroke="#A78BFA" opacity=".23" stroke-width="2"/><circle cx="548" cy="53" r="38" fill="none" stroke="#A78BFA" opacity=".43" stroke-width="2"/><path d="M500 53 H596 M548 5 V101 M515 20 L581 86 M515 86 L581 20" stroke="#A78BFA" opacity=".28"/><circle cx="548" cy="53" r="14" fill="#A78BFA" opacity=".9"/><text x="29" y="35" font-family="Arial,Helvetica,sans-serif" font-size="12" font-weight="700" letter-spacing="2" fill="#A78BFA">GENAI / RETRIEVAL</text><text x="29" y="75" font-family="Arial,Helvetica,sans-serif" font-size="26" font-weight="800" fill="#F4F8FF">Advanced RAG System</text><text x="29" y="105" font-family="Arial,Helvetica,sans-serif" font-size="14" fill="#9DB4CD">Multi-model retrieval and document intelligence</text><rect x="29" y="134" rx="10" width="68" height="28" fill="#111C33" stroke="#2C4664"/><text x="63.0" y="152" text-anchor="middle" font-size="12" font-family="Arial,Helvetica,sans-serif" fill="#F4F8FF">Python</text><rect x="105" y="134" rx="10" width="48" height="28" fill="#111C33" stroke="#2C4664"/><text x="129.0" y="152" text-anchor="middle" font-size="12" font-family="Arial,Helvetica,sans-serif" fill="#F4F8FF">RAG</text><rect x="161" y="134" rx="10" width="52" height="28" fill="#111C33" stroke="#2C4664"/><text x="187.0" y="152" text-anchor="middle" font-size="12" font-family="Arial,Helvetica,sans-serif" fill="#F4F8FF">LLMs</text><rect x="221" y="134" rx="10" width="124" height="28" fill="#111C33" stroke="#2C4664"/><text x="283.0" y="152" text-anchor="middle" font-size="12" font-family="Arial,Helvetica,sans-serif" fill="#F4F8FF">Vector Search</text><text x="584" y="160" text-anchor="end" font-size="12" font-family="Arial,Helvetica,sans-serif" fill="#A78BFA">VIEW REPO  ↗</text></svg>