<svg xmlns="http://www.w3.org/2000/svg" width="620" height="192" viewBox="0 0 620 192" role="img" aria-label="Project: AI Chatbot"><title>Project: AI Chatbot</title><rect x="1" y="1" width="618" height="190" rx="18" fill="#122238" stroke="#2C4664" stroke-width="2"/><rect x="1" y="1" width="7" height="190" rx="3" fill="#60A5FA"/><circle cx="548" cy="53" r="57" fill="none" stroke="#60A5FA" opacity=".23" stroke-width="2"/><circle cx="548" cy="53" r="38" fill="none" stroke="#60A5FA" opacity=".43" stroke-width="2"/><path d="M500 53 H596 M548 5 V101 M515 20 L581 86 M515 86 L581 20" stroke="#60A5FA" opacity=".28"/><circle cx="548" cy="53" r="14" fill="#60A5FA" opacity=".9"/><text x="29" y="35" font-family="Arial,Helvetica,sans-serif" font-size="12" font-weight="700" letter-spacing="2" fill="#60A5FA">CONVERSATIONAL AI</text><text x="29" y="75" font-family="Arial,Helvetica,sans-serif" font-size="26" font-weight="800" fill="#F4F8FF">AI Chatbot</text><text x="29" y="105" font-family="Arial,Helvetica,sans-serif" font-size="14" fill="#9DB4CD">Modern chatbot interface and AI experimentation</text><rect x="29" y="134" rx="10" width="100" height="28" fill="#111C33" stroke="#2C4664"/><text x="79.0" y="152" text-anchor="middle" font-size="12" font-family="Arial,Helvetica,sans-serif" fill="#F4F8FF">TypeScript</text><rect x="137" y="134" rx="10" width="76" height="28" fill="#111C33" stroke="#2C4664"/><text x="175.0" y="152" text-anchor="middle" font-size="12" font-family="Arial,Helvetica,sans-serif" fill="#F4F8FF">Chatbot</text><rect x="221" y="134" rx="10" width="84" height="28" fill="#111C33" stroke="#2C4664"/><text x="263.0" y="152" text-anchor="middle" font-size="12" font-family="Arial,Helvetica,sans-serif" fill="#F4F8FF">Frontend</text><rect x="313" y="134" rx="10" width="48" height="28" fill="#111C33" stroke="#2C4664"/><text x="337.0" y="152" text-anchor="middle" font-size="12" font-family="Arial,Helvetica,sans-serif" fill="#F4F8FF">AI</text><text x="584" y="160" text-anchor="end" font-size="12" font-family="Arial,Helvetica,sans-serif" fill="#60A5FA">VIEW REPO  ↗</text></svg>