<svg xmlns="http://www.w3.org/2000/svg" width="620" height="192" viewBox="0 0 620 192" role="img" aria-label="Project: Local AI Semantic Search"><title>Project: Local AI Semantic Search</title><rect x="1" y="1" width="618" height="190" rx="18" fill="#122238" stroke="#2C4664" stroke-width="2"/><rect x="1" y="1" width="7" height="190" rx="3" fill="#FBBF24"/><circle cx="548" cy="53" r="57" fill="none" stroke="#FBBF24" opacity=".23" stroke-width="2"/><circle cx="548" cy="53" r="38" fill="none" stroke="#FBBF24" opacity=".43" stroke-width="2"/><path d="M500 53 H596 M548 5 V101 M515 20 L581 86 M515 86 L581 20" stroke="#FBBF24" opacity=".28"/><circle cx="548" cy="53" r="14" fill="#FBBF24" opacity=".9"/><text x="29" y="35" font-family="Arial,Helvetica,sans-serif" font-size="12" font-weight="700" letter-spacing="2" fill="#FBBF24">PRIVATE / LOCAL AI</text><text x="29" y="75" font-family="Arial,Helvetica,sans-serif" font-size="26" font-weight="800" fill="#F4F8FF">Local AI Semantic Search</text><text x="29" y="105" font-family="Arial,Helvetica,sans-serif" font-size="14" fill="#9DB4CD">Local-first document search and embeddings</text><rect x="29" y="134" rx="10" width="76" height="28" fill="#111C33" stroke="#2C4664"/><text x="67.0" y="152" text-anchor="middle" font-size="12" font-family="Arial,Helvetica,sans-serif" fill="#F4F8FF">FastAPI</text><rect x="113" y="134" rx="10" width="60" height="28" fill="#111C33" stroke="#2C4664"/><text x="143.0" y="152" text-anchor="middle" font-size="12" font-family="Arial,Helvetica,sans-serif" fill="#F4F8FF">FAISS</text><rect x="181" y="134" rx="10" width="68" height="28" fill="#111C33" stroke="#2C4664"/><text x="215.0" y="152" text-anchor="middle" font-size="12" font-family="Arial,Helvetica,sans-serif" fill="#F4F8FF">Python</text><rect x="257" y="134" rx="10" width="100" height="28" fill="#111C33" stroke="#2C4664"/><text x="307.0" y="152" text-anchor="middle" font-size="12" font-family="Arial,Helvetica,sans-serif" fill="#F4F8FF">Embeddings</text><text x="584" y="160" text-anchor="end" font-size="12" font-family="Arial,Helvetica,sans-serif" fill="#FBBF24">VIEW REPO  ↗</text></svg>